<svg width="24" height="25" viewBox="0 0 24 25" fill="none" xmlns="http://www.w3.org/2000/svg">
    <path fill-rule="evenodd" clip-rule="evenodd" d="M3.25 12.5C3.25 7.66751 7.16751 3.75 12 3.75C16.8325 3.75 20.75 7.66751 20.75 12.5C20.75 17.3325 16.8325 21.25 12 21.25C7.16751 21.25 3.25 17.3325 3.25 12.5ZM13 8.5C13 9.05228 12.5523 9.5 12 9.5C11.4477 9.5 11 9.05228 11 8.5C11 7.94772 11.4477 7.5 12 7.5C12.5523 7.5 13 7.94772 13 8.5ZM12 11.25C12.4142 11.25 12.75 11.5858 12.75 12V17C12.75 17.4142 12.4142 17.75 12 17.75C11.5858 17.75 11.25 17.4142 11.25 17V12C11.25 11.5858 11.5858 11.25 12 11.25Z" fill="#929292"/>
</svg>
