<svg width="32" height="32" viewBox="0 0 32 32" fill="none" xmlns="http://www.w3.org/2000/svg">
    <rect width="32" height="32" rx="16" fill="#00AFF5"/>
    <path d="M11.7503 8C11.7503 7.58579 11.4145 7.25 11.0003 7.25C10.5861 7.25 10.2503 7.58579 10.2503 8V9.81643C8.75723 10.0275 7.57768 11.2085 7.378 12.7148L7.29145 13.3678C7.27678 13.4785 7.26275 13.5893 7.24936 13.7001C7.21384 13.994 7.44545 14.25 7.74155 14.25H24.259C24.5551 14.25 24.7867 13.994 24.7512 13.7001C24.7378 13.5893 24.7238 13.4785 24.7091 13.3678L24.6225 12.7148C24.4229 11.2085 23.2433 10.0275 21.7503 9.81644V8C21.7503 7.58579 21.4145 7.25 21.0003 7.25C20.5861 7.25 20.2503 7.58579 20.2503 8V9.66763C17.4226 9.4158 14.578 9.4158 11.7503 9.66763V8Z" fill="white"/>
    <path d="M24.9449 16.2256C24.9361 15.9591 24.716 15.75 24.4494 15.75H7.55117C7.2846 15.75 7.06443 15.9591 7.05568 16.2256C6.99628 18.0332 7.10608 19.8446 7.38482 21.6359C7.59583 22.9919 8.69749 24.0335 10.0632 24.1681L11.2562 24.2858C14.4113 24.5969 17.5893 24.5969 20.7443 24.2858L21.9373 24.1681C23.3031 24.0335 24.4047 22.9919 24.6157 21.6359C24.8945 19.8446 25.0043 18.0332 24.9449 16.2256Z" fill="white"/>
</svg>
