<svg width="18" height="19" viewBox="0 0 18 19" fill="none" xmlns="http://www.w3.org/2000/svg">
    <path fill-rule="evenodd" clip-rule="evenodd" d="M5.40005 2.30005C4.90299 2.30005 4.50005 2.70299 4.50005 3.20005V4.10005H3.60005C2.60594 4.10005 1.80005 4.90594 1.80005 5.90005V14.9C1.80005 15.8942 2.60594 16.7 3.60005 16.7H14.4C15.3942 16.7 16.2 15.8942 16.2 14.9V5.90005C16.2 4.90594 15.3942 4.10005 14.4 4.10005H13.5V3.20005C13.5 2.70299 13.0971 2.30005 12.6 2.30005C12.103 2.30005 11.7 2.70299 11.7 3.20005V4.10005H6.30005V3.20005C6.30005 2.70299 5.89711 2.30005 5.40005 2.30005ZM5.40005 6.80005C4.90299 6.80005 4.50005 7.20299 4.50005 7.70005C4.50005 8.19711 4.90299 8.60005 5.40005 8.60005H12.6C13.0971 8.60005 13.5 8.19711 13.5 7.70005C13.5 7.20299 13.0971 6.80005 12.6 6.80005H5.40005Z" fill="#606060"/>
</svg>
