<svg width="24" height="24" viewBox="0 0 24 24" fill="none" xmlns="http://www.w3.org/2000/svg">
    <path fill-rule="evenodd" clip-rule="evenodd" d="M5.83998 9.85617C7.6273 13.7481 10.8078 16.8422 14.7615 18.5188L14.774 18.5241L15.5378 18.8646C16.5105 19.2979 17.6537 18.9901 18.2773 18.1271L19.5517 16.3633C19.6295 16.2556 19.6095 16.1058 19.506 16.0223L17.2813 14.2275C17.1707 14.1383 17.008 14.1591 16.9234 14.2732L16.0576 15.4416C15.8473 15.7254 15.4675 15.824 15.1458 15.6784C12.1894 14.3404 9.81367 11.9647 8.47574 9.00832C8.33012 8.68656 8.42872 8.30681 8.71247 8.09653L9.88085 7.23067C9.99502 7.14606 10.0158 6.98343 9.92657 6.87284L8.13153 4.6478C8.0481 4.54438 7.89836 4.52429 7.79063 4.60207L6.01733 5.88222C5.14854 6.50941 4.84259 7.66226 5.28605 8.63771L5.83939 9.85487C5.83959 9.8553 5.83979 9.85574 5.83998 9.85617ZM14.1696 19.8971C9.87362 18.0735 6.41825 14.7105 4.47621 10.4808L4.47504 10.4782L3.92054 9.2585C3.18144 7.63275 3.69136 5.71134 5.13935 4.66603L6.91264 3.38587C7.66676 2.84146 8.71499 2.98207 9.29898 3.70596L11.094 5.931C11.7186 6.70517 11.5731 7.84357 10.774 8.43581L10.1045 8.93196C11.2354 11.1264 13.0277 12.9187 15.2221 14.0497L15.7183 13.3801C16.3105 12.581 17.4489 12.4355 18.2231 13.0601L20.4478 14.8549C21.172 15.439 21.3124 16.4877 20.7675 17.2418L19.4931 19.0055C18.4538 20.444 16.5484 20.957 14.9274 20.2347L14.1696 19.8971Z" fill="black"/>
</svg>
