<svg width="24" height="24" viewBox="0 0 24 24" fill="none" xmlns="http://www.w3.org/2000/svg">
    <path d="M22.4419 12.0151C22.3527 11.6756 22.1648 11.3703 21.9019 11.1376C21.1598 10.5192 20.3239 9.78458 19.9152 9.37583H21.1002C21.3673 9.37071 21.6217 9.26102 21.8088 9.07032C21.9958 8.87963 22.1006 8.62315 22.1006 8.35602C22.1006 8.08889 21.9958 7.83241 21.8088 7.64172C21.6217 7.45102 21.3673 7.34133 21.1002 7.33621C20.5384 7.36733 19.4903 7.20946 19.0189 7.56871C18.6856 6.72871 18.2843 5.70158 17.9772 4.90696C17.8353 4.56448 17.5949 4.27186 17.2864 4.06623C16.978 3.8606 16.6154 3.75121 16.2447 3.75196H7.7502C7.37812 3.75163 7.01435 3.86199 6.70517 4.069C6.396 4.27601 6.15539 4.57031 6.01395 4.91446C5.71057 5.70571 5.30932 6.72908 4.97595 7.56871C4.5042 7.20646 3.44557 7.37033 2.8947 7.33621C2.62762 7.34138 2.37322 7.45112 2.18618 7.64185C1.99914 7.83258 1.89439 8.08907 1.89444 8.3562C1.89449 8.62334 1.99934 8.87979 2.18644 9.07045C2.37355 9.26111 2.62799 9.37076 2.89507 9.37583H4.08007C3.66757 9.78833 2.83132 10.523 2.07007 11.1567C1.88863 11.3202 1.74398 11.5204 1.64572 11.744C1.54746 11.9676 1.49781 12.2096 1.50007 12.4538V16.124C1.49843 16.5299 1.63018 16.9252 1.87507 17.249V19.1232C1.87587 19.4213 1.99459 19.7069 2.20532 19.9177C2.41605 20.1285 2.70164 20.2473 2.9997 20.2482H5.24895C5.54707 20.2474 5.83276 20.1286 6.04357 19.9178C6.25438 19.707 6.37316 19.4213 6.37395 19.1232V17.9982H17.6209V19.1232C17.6211 19.4214 17.7397 19.7074 17.9505 19.9184C18.1614 20.1293 18.4473 20.2479 18.7456 20.2482H20.9948C21.2931 20.248 21.5792 20.1294 21.7901 19.9185C22.001 19.7075 22.1196 19.4215 22.1198 19.1232V17.2486C22.3646 16.9249 22.4964 16.5298 22.4948 16.124C22.4764 15.884 22.5436 12.1141 22.4419 12.0151ZM19.814 8.08621H21.1002C21.1718 8.08621 21.2405 8.11465 21.2911 8.16529C21.3418 8.21592 21.3702 8.2846 21.3702 8.35621C21.3702 8.42782 21.3418 8.49649 21.2911 8.54713C21.2405 8.59776 21.1718 8.62621 21.1002 8.62621H19.4539C19.4089 8.52496 19.3639 8.40871 19.3152 8.28496C19.4511 8.15919 19.6288 8.08836 19.814 8.08621ZM6.71145 5.19571C6.79539 4.98955 6.93917 4.81327 7.12426 4.68961C7.30934 4.56595 7.52723 4.50059 7.74982 4.50196H16.2451C16.4659 4.5001 16.6822 4.56402 16.8665 4.68556C17.0509 4.80711 17.1948 4.98079 17.2801 5.18446C17.381 5.45071 18.7268 8.82833 18.8018 9.00083H5.19307C5.65807 7.92458 6.59145 5.51071 6.71145 5.19571ZM2.89432 8.62583C2.82272 8.62583 2.75404 8.59739 2.70341 8.54675C2.65277 8.49612 2.62432 8.42744 2.62432 8.35583C2.62432 8.28422 2.65277 8.21555 2.70341 8.16491C2.75404 8.11428 2.82272 8.08583 2.89432 8.08583H4.18057C4.36558 8.08808 4.54317 8.1589 4.67895 8.28458C4.6302 8.40833 4.5852 8.52458 4.5402 8.62583H2.89432ZM5.62357 19.1232C5.62328 19.2226 5.58367 19.3178 5.51341 19.388C5.44315 19.4583 5.34794 19.4979 5.24857 19.4982H3.00007C2.90071 19.4979 2.8055 19.4583 2.73524 19.388C2.66497 19.3178 2.62537 19.2226 2.62507 19.1232V17.8445C2.86217 17.9457 3.11727 17.998 3.37507 17.9982H5.62432L5.62357 19.1232ZM7.59645 17.2486L7.87207 16.4986H16.202L16.4584 17.2486H7.59645ZM21.3694 19.1232C21.3694 19.2226 21.3298 19.318 21.2595 19.3883C21.1892 19.4586 21.0939 19.4981 20.9944 19.4982H18.7452C18.6458 19.4981 18.5504 19.4586 18.4801 19.3883C18.4098 19.318 18.3703 19.2226 18.3702 19.1232V17.9982C18.9533 17.9596 20.8834 18.1175 21.3694 17.8448V19.1232ZM20.6194 17.2486H17.2512L16.8245 16.0025C16.7991 15.9285 16.7513 15.8643 16.6877 15.8189C16.6241 15.7734 16.5479 15.749 16.4697 15.749H7.61107C7.53429 15.7489 7.45936 15.7725 7.39638 15.8164C7.33341 15.8603 7.28544 15.9225 7.25895 15.9946L6.79845 17.2486C6.23782 17.2501 3.97095 17.2478 3.3747 17.2486C3.22698 17.2486 3.0807 17.2196 2.94421 17.1631C2.80772 17.1066 2.6837 17.0238 2.57923 16.9193C2.47476 16.8149 2.39188 16.6909 2.33534 16.5544C2.2788 16.4179 2.2497 16.2717 2.2497 16.124V12.4538C2.25053 12.3153 2.27956 12.1783 2.335 12.0513C2.39044 11.9243 2.47115 11.8099 2.5722 11.7151C2.9922 11.3626 4.2222 10.328 4.75432 9.75083H19.2406C19.7731 10.3283 21.0023 11.3588 21.4036 11.6963C21.51 11.7919 21.5954 11.9086 21.6541 12.0391C21.7129 12.1695 21.7438 12.3108 21.7448 12.4538V16.124C21.744 16.4221 21.6253 16.7078 21.4144 16.9186C21.2036 17.1294 20.9179 17.2482 20.6198 17.249L20.6194 17.2486Z" fill="black"/>
    <path d="M6.65962 12.1669C6.6254 12.1156 6.57906 12.0735 6.52471 12.0444C6.47035 12.0153 6.40966 12.0001 6.348 12H3.375C3.27554 12 3.18016 12.0395 3.10983 12.1098C3.03951 12.1802 3 12.2755 3 12.375C3.00069 12.8719 3.19843 13.3483 3.54985 13.6997C3.90128 14.051 4.37769 14.2487 4.87463 14.2493H7.34888C7.41632 14.2483 7.48228 14.2293 7.53989 14.1942C7.5975 14.1591 7.64466 14.1092 7.67647 14.0497C7.70828 13.9903 7.72358 13.9233 7.72077 13.8559C7.71796 13.7885 7.69715 13.7231 7.6605 13.6665L6.65962 12.1669ZM4.87463 13.4996C4.64206 13.4994 4.41527 13.4271 4.22539 13.2929C4.03552 13.1586 3.89185 12.9688 3.81413 12.7496H6.14737L6.648 13.4996H4.87463ZM15.8479 12H8.14725C8.07978 12.001 8.0138 12.02 7.95619 12.0552C7.89857 12.0903 7.85142 12.1402 7.81965 12.1998C7.78787 12.2593 7.77263 12.3263 7.7755 12.3937C7.77838 12.4611 7.79927 12.5265 7.836 12.5831L8.8365 14.0828C8.8708 14.134 8.91722 14.176 8.97164 14.2051C9.02606 14.2341 9.08681 14.2493 9.1485 14.2493H14.8466C14.9082 14.2492 14.9689 14.234 15.0233 14.205C15.0776 14.176 15.124 14.134 15.1583 14.0828L16.1595 12.5828C16.1961 12.5261 16.217 12.4607 16.2198 12.3933C16.2226 12.3259 16.2073 12.259 16.1755 12.1995C16.1437 12.14 16.0965 12.0902 16.0389 12.0551C15.9813 12.02 15.9153 12.001 15.8479 12ZM14.6464 13.4996H9.34912L8.84888 12.7496H15.1466L14.6464 13.4996ZM20.6205 12H17.6475C17.5858 12 17.525 12.0152 17.4706 12.0443C17.4162 12.0734 17.3698 12.1155 17.3355 12.1669L16.3346 13.6665C16.298 13.7231 16.2772 13.7885 16.2744 13.8559C16.2715 13.9233 16.2868 13.9903 16.3187 14.0497C16.3505 14.1092 16.3976 14.1591 16.4552 14.1942C16.5128 14.2293 16.5788 14.2483 16.6462 14.2493H19.1209C19.6177 14.2486 20.0941 14.0509 20.4454 13.6995C20.7967 13.3482 20.9944 12.8719 20.9951 12.375C20.9951 12.2755 20.9556 12.1802 20.8853 12.1098C20.815 12.0395 20.72 12 20.6205 12ZM19.1205 13.4996H17.3479L17.8481 12.7496H20.1818C20.104 12.9688 19.9604 13.1586 19.7705 13.2929C19.5806 13.4271 19.3538 13.4994 19.1212 13.4996H19.1205Z" fill="black"/>
</svg>
