<svg width="22" height="22" viewBox="0 0 22 22" fill="none" xmlns="http://www.w3.org/2000/svg">
<path d="M18.6617 11.8702C20.4991 11.8759 21.9888 13.392 22 15.2676V18.5921C21.9889 20.4695 20.5008 21.9886 18.6617 22H15.4051C13.5677 21.9886 12.0826 20.4678 12.077 18.5921V15.2676C12.077 13.3913 13.5671 11.8702 15.4051 11.8702H18.6617ZM4.67564 11.8702C5.01757 11.8329 5.35041 11.998 5.53283 12.2956C5.71525 12.5932 5.71525 12.971 5.53283 13.2686C5.35041 13.5662 5.01757 13.7314 4.67564 13.694H3.33828C2.48525 13.694 1.79215 14.3969 1.78654 15.2677V18.5505C1.80823 19.4143 2.49199 20.1077 3.33828 20.1241H6.61531C7.02592 20.1269 7.42064 19.9623 7.71195 19.6669C8.00325 19.3715 8.16706 18.9696 8.16705 18.5505V13.621L8.15312 13.4984C8.13772 13.1723 8.29414 12.8582 8.56942 12.68C8.87912 12.4795 9.27707 12.4914 9.57483 12.7098C9.87259 12.9283 10.0104 13.3096 9.92297 13.6732V18.5817C9.92297 20.4638 8.42837 21.9896 6.58469 21.9896H3.33828C1.51054 21.9509 0.0379209 20.4476 0 18.5817V15.2677C0 14.3648 0.352032 13.4991 0.978377 12.8616C1.60472 12.2242 2.45386 11.8675 3.33828 11.8702H4.67564ZM18.6617 0C20.4855 0.0442078 21.9521 1.54597 21.9898 3.40786V6.72193C22.0007 7.62301 21.6605 8.49159 21.044 9.13657C20.4275 9.78155 19.5852 10.1501 18.7026 10.1611H17.355C16.8985 10.1112 16.5522 9.71788 16.5522 9.24917C16.5522 8.78046 16.8985 8.38718 17.355 8.33728H18.6617C19.0751 8.33454 19.4702 8.16357 19.7596 7.86228C20.049 7.56098 20.2087 7.15428 20.2032 6.73235V3.40786C20.1922 2.54345 19.5085 1.84543 18.6617 1.8342H15.4051C14.5537 1.8342 13.8636 2.53875 13.8636 3.40786V8.37897L13.8529 8.49328C13.7837 8.94191 13.4008 9.28072 12.9448 9.27523C12.7074 9.2698 12.482 9.16755 12.319 8.99132C12.1559 8.81509 12.0688 8.57954 12.077 8.33728V3.40786C12.0743 2.505 12.4238 1.63817 13.0482 0.99877C13.6726 0.35937 14.5207 0 15.4051 0H18.6617ZM6.5949 0C8.43625 0.00572222 9.92757 1.52813 9.93318 3.40786V6.73235C9.93318 7.63522 9.58115 8.50096 8.9548 9.1384C8.32846 9.77585 7.47932 10.1326 6.5949 10.1298H3.33828C1.50089 10.1241 0.0111953 8.60802 5.61485e-08 6.73235V3.40786C0.0111461 1.53049 1.49924 0.0113784 3.33828 0H6.5949Z" fill="white"/>
</svg>
