<svg width="24" height="24" viewBox="0 0 24 24" fill="none" xmlns="http://www.w3.org/2000/svg">
    <g clip-path="url(#clip0_595_3800)">
        <path d="M21.93 19.9875C22.7954 18.7444 23.2564 17.2647 23.25 15.75C23.25 13.365 22.1175 11.16 20.2125 9.7425C19.8225 4.7175 15.6225 0.75 10.5 0.75C5.1225 0.75 0.75 5.1225 0.75 10.5C0.75 12.5025 1.3575 14.4225 2.505 16.065C1.7325 17.79 0.885 19.0725 0.8775 19.0875C0.7275 19.32 0.7125 19.6125 0.84 19.86C0.9675 20.1 1.2225 20.25 1.5 20.25C1.59 20.2725 4.5 20.2425 6.9825 19.5975C7.8675 19.9425 8.7975 20.145 9.7425 20.22C11.1525 22.1175 13.365 23.2575 15.7425 23.2575C16.545 23.2575 17.355 23.1225 18.15 22.8525C20.31 23.2425 22.41 23.25 22.5 23.25C22.7775 23.25 23.0325 23.1 23.16 22.8525C23.2875 22.605 23.2725 22.3125 23.1225 22.08C23.115 22.0725 22.5525 21.2325 21.93 19.9875ZM7.035 18.0525C6.9675 18.0525 6.9 18.06 6.8325 18.0825C5.49 18.4575 3.945 18.6225 2.8575 18.6975C3.21 18.06 3.6525 17.2125 4.05 16.26C4.155 16.0125 4.1175 15.7275 3.9525 15.51C2.84706 14.074 2.24838 12.3122 2.25 10.5C2.25 5.9475 5.9475 2.25 10.5 2.25C15.0525 2.25 18.75 5.9475 18.75 10.5C18.75 15.0525 15.0525 18.75 10.5 18.75C9.3975 18.75 8.3325 18.5325 7.32 18.1125C7.22986 18.074 7.13302 18.0536 7.035 18.0525ZM20.385 20.2275C20.6475 20.79 20.9175 21.285 21.1425 21.6975C20.34 21.645 19.2825 21.54 18.24 21.3375C18.105 21.315 17.9625 21.3225 17.835 21.3675C16.8007 21.7493 15.6813 21.8394 14.5992 21.6277C13.5172 21.4161 12.5142 20.9109 11.7 20.1675C16.1175 19.62 19.62 16.1175 20.1675 11.7C21.1847 12.8035 21.7496 14.2492 21.75 15.75C21.75 17.1 21.3075 18.375 20.4675 19.44C20.3817 19.5505 20.3284 19.6828 20.3139 19.822C20.2993 19.9611 20.3239 20.1016 20.385 20.2275ZM10.5 11.25C10.0875 11.25 9.75 10.9125 9.75 10.5C9.75 10.0875 10.0875 9.75 10.5 9.75C10.9125 9.75 11.25 10.0875 11.25 10.5C11.25 10.9125 10.9125 11.25 10.5 11.25ZM8.25 10.5C8.25 10.9125 7.9125 11.25 7.5 11.25C7.0875 11.25 6.75 10.9125 6.75 10.5C6.75 10.0875 7.0875 9.75 7.5 9.75C7.9125 9.75 8.25 10.0875 8.25 10.5ZM12.75 10.5C12.75 10.0875 13.0875 9.75 13.5 9.75C13.9125 9.75 14.25 10.0875 14.25 10.5C14.25 10.9125 13.9125 11.25 13.5 11.25C13.0875 11.25 12.75 10.9125 12.75 10.5Z" fill="#414141"/>
    </g>
    <defs>
        <clipPath id="clip0_595_3800">
            <rect width="24" height="24" fill="white"/>
        </clipPath>
    </defs>
</svg>
