<svg width="20" height="20" viewBox="0 0 20 20" fill="none" xmlns="http://www.w3.org/2000/svg">
    <path fill-rule="evenodd" clip-rule="evenodd" d="M9.99935 2.2915C5.74215 2.2915 2.29102 5.74264 2.29102 9.99984C2.29102 14.257 5.74215 17.7082 9.99935 17.7082C14.2565 17.7082 17.7077 14.257 17.7077 9.99984C17.7077 5.74264 14.2565 2.2915 9.99935 2.2915ZM1.04102 9.99984C1.04102 5.05229 5.0518 1.0415 9.99935 1.0415C14.9469 1.0415 18.9577 5.05229 18.9577 9.99984C18.9577 14.9474 14.9469 18.9582 9.99935 18.9582C5.0518 18.9582 1.04102 14.9474 1.04102 9.99984ZM9.99935 6.0415C10.3445 6.0415 10.6243 6.32133 10.6243 6.6665V9.74095L12.5246 11.6412C12.7687 11.8853 12.7687 12.281 12.5246 12.5251C12.2805 12.7692 11.8848 12.7692 11.6407 12.5251L9.55741 10.4418C9.4402 10.3246 9.37435 10.1656 9.37435 9.99984V6.6665C9.37435 6.32133 9.65417 6.0415 9.99935 6.0415Z" fill="#0D1217"/>
</svg>
