<svg width="24" height="25" viewBox="0 0 24 25" fill="none" xmlns="http://www.w3.org/2000/svg">
    <path d="M12 8.75C9.92893 8.75 8.25 10.4289 8.25 12.5C8.25 14.5711 9.92893 16.25 12 16.25C14.0711 16.25 15.75 14.5711 15.75 12.5C15.75 10.4289 14.0711 8.75 12 8.75Z" fill="#00AFF5"/>
    <path fill-rule="evenodd" clip-rule="evenodd" d="M12 1.75C12.4142 1.75 12.75 2.08579 12.75 2.5V3.78169C16.9842 4.14113 20.3589 7.51581 20.7183 11.75H22C22.4142 11.75 22.75 12.0858 22.75 12.5C22.75 12.9142 22.4142 13.25 22 13.25H20.7183C20.3589 17.4842 16.9842 20.8589 12.75 21.2183V22.5C12.75 22.9142 12.4142 23.25 12 23.25C11.5858 23.25 11.25 22.9142 11.25 22.5V21.2183C7.01581 20.8589 3.64113 17.4842 3.28169 13.25H2C1.58579 13.25 1.25 12.9142 1.25 12.5C1.25 12.0858 1.58579 11.75 2 11.75H3.28169C3.64113 7.51581 7.01581 4.14113 11.25 3.78169V2.5C11.25 2.08579 11.5858 1.75 12 1.75ZM4.75 12.5C4.75 16.5041 7.99594 19.75 12 19.75C16.0041 19.75 19.25 16.5041 19.25 12.5C19.25 8.49594 16.0041 5.25 12 5.25C7.99594 5.25 4.75 8.49594 4.75 12.5Z" fill="#00AFF5"/>
</svg>
