<svg width="42" height="42" viewBox="0 0 42 42" fill="none" xmlns="http://www.w3.org/2000/svg">
<rect x="1.5" y="1.5" width="39" height="39" rx="19.5" fill="white"/>
<rect x="1.5" y="1.5" width="39" height="39" rx="19.5" stroke="#00AFF5" stroke-width="3"/>
<path d="M17.75 19C17.75 17.2051 19.2051 15.75 21 15.75C22.7949 15.75 24.25 17.2051 24.25 19C24.25 20.7949 22.7949 22.25 21 22.25C19.2051 22.25 17.75 20.7949 17.75 19Z" fill="#00AFF5"/>
<path fill-rule="evenodd" clip-rule="evenodd" d="M12.7735 17.8774C13.1172 13.7084 16.601 10.5 20.7841 10.5H21.216C25.3991 10.5 28.8829 13.7084 29.2265 17.8774C29.4115 20.122 28.7182 22.3508 27.2925 24.0943L22.4995 29.9561C21.7245 30.9039 20.2756 30.9039 19.5006 29.9561L14.7075 24.0943C13.2819 22.3508 12.5885 20.122 12.7735 17.8774ZM21 14.25C18.3766 14.25 16.25 16.3766 16.25 19C16.25 21.6234 18.3766 23.75 21 23.75C23.6234 23.75 25.75 21.6234 25.75 19C25.75 16.3766 23.6234 14.25 21 14.25Z" fill="#00AFF5"/>
</svg>
