<svg width="32" height="32" viewBox="0 0 32 32" fill="none" xmlns="http://www.w3.org/2000/svg">
    <rect width="32" height="32" rx="4" fill="#00AFF5"/>
    <path d="M20.4772 7.00356C20.6448 7.01949 20.7171 7.22296 20.598 7.34199L12.2779 15.6621C12.1837 15.7563 12.1163 15.8739 12.0826 16.0029L11.0826 19.8313C11.0153 20.0889 11.0897 20.3629 11.2779 20.5512C11.4662 20.7395 11.7402 20.8138 11.9978 20.7465L15.8262 19.7465C15.9552 19.7128 16.0728 19.6454 16.167 19.5512L24.605 11.1132C24.7233 10.9949 24.9257 11.0657 24.9432 11.2322C25.2948 14.5814 25.2749 17.9597 24.8836 21.3056C24.6607 23.2106 23.1296 24.7064 21.2312 24.9186C17.783 25.304 14.2183 25.304 10.7702 24.9186C8.87181 24.7064 7.34062 23.2106 7.1178 21.3056C6.70552 17.7806 6.70552 14.2195 7.1178 10.6945C7.34062 8.78947 8.87181 7.29369 10.7702 7.08151C13.9676 6.72416 17.2652 6.69817 20.4772 7.00356Z" fill="white"/>
    <path d="M21.824 8.23732C21.9216 8.13988 22.0797 8.13988 22.1773 8.23732L23.5917 9.65168C23.6893 9.74931 23.6893 9.9076 23.5917 10.0052L15.2982 18.2987C15.267 18.3299 15.2273 18.3525 15.1846 18.3638L13.2702 18.8638C13.0856 18.9119 12.9174 18.7433 12.9654 18.5587L13.4654 16.6445C13.4766 16.6015 13.4991 16.5623 13.5305 16.5309L21.824 8.23732Z" fill="white"/>
</svg>
