<svg width="24" height="25" viewBox="0 0 24 25" fill="none" xmlns="http://www.w3.org/2000/svg">
    <path fill-rule="evenodd" clip-rule="evenodd" d="M6.71133 4.47081C10.2299 4.15621 13.7694 4.15621 17.288 4.47081L18.8053 4.60648C20.3177 4.7417 21.5396 5.89708 21.7593 7.39951C22.2538 10.7818 22.2538 14.2181 21.7593 17.6004C21.5396 19.1029 20.3177 20.2582 18.8053 20.3935L17.288 20.5291C13.7694 20.8437 10.2299 20.8437 6.71133 20.5291L5.19398 20.3935C3.68162 20.2582 2.45966 19.1029 2.24001 17.6004C1.74552 14.2181 1.74552 10.7818 2.24001 7.39951C2.45966 5.89708 3.68162 4.7417 5.19398 4.60648L6.71133 4.47081ZM5.85521 7.33962C5.62278 7.21446 5.34167 7.22072 5.11504 7.35608C4.88841 7.49145 4.74963 7.73599 4.74963 7.99997V17.5C4.74963 17.9142 5.08542 18.25 5.49963 18.25C5.91385 18.25 6.24963 17.9142 6.24963 17.5V9.25563L11.6441 12.1603C11.866 12.2799 12.1332 12.2799 12.3552 12.1603L17.7496 9.25563V17.5C17.7496 17.9142 18.0854 18.25 18.4996 18.25C18.9138 18.25 19.2496 17.9142 19.2496 17.5V7.99997C19.2496 7.73599 19.1109 7.49145 18.8842 7.35608C18.6576 7.22072 18.3765 7.21446 18.1441 7.33962L11.9996 10.6482L5.85521 7.33962Z" fill="#929292"/>
</svg>
