<svg width="48" height="48" viewBox="0 0 48 48" fill="none" xmlns="http://www.w3.org/2000/svg">
    <path d="M8.57094 16.6875C6.22623 17.3166 4.5 19.4567 4.5 22V28C4.5 31.0376 6.96243 33.5 10 33.5H15C15.8284 33.5 16.5 32.8284 16.5 32V18C16.5 17.1716 15.8284 16.5 15 16.5H11.6297C12.488 11.56 17.5172 7.5 24 7.5C30.4828 7.5 35.512 11.56 36.3703 16.5H33C32.1716 16.5 31.5 17.1716 31.5 18V32C31.5 32.8284 32.1716 33.5 33 33.5H36.326C35.6489 36.3667 33.0736 38.5 30 38.5H27.7092C27.1159 37.0341 25.6787 36 24 36C21.7909 36 20 37.7909 20 40C20 42.2091 21.7909 44 24 44C25.6787 44 27.1159 42.9659 27.7092 41.5H30C34.7995 41.5 38.7678 37.9408 39.4093 33.3178C41.7641 32.6954 43.5 30.5504 43.5 28V22C43.5 19.4567 41.7738 17.3166 39.4291 16.6875C38.6661 9.67918 31.8524 4.5 24 4.5C16.1476 4.5 9.33385 9.67918 8.57094 16.6875Z" fill="#00AFF5"/>
</svg>
