<svg width="24" height="24" viewBox="0 0 24 24" fill="none" xmlns="http://www.w3.org/2000/svg">
    <path d="M9.5 17.5C9.36739 17.5 9.24021 17.5527 9.14645 17.6464C9.05268 17.7402 9 17.8674 9 18C9 18.1326 9.05268 18.2598 9.14645 18.3536C9.24021 18.4473 9.36739 18.5 9.5 18.5H14.5C14.6326 18.5 14.7598 18.4473 14.8536 18.3536C14.9473 18.2598 15 18.1326 15 18C15 17.8674 14.9473 17.7402 14.8536 17.6464C14.7598 17.5527 14.6326 17.5 14.5 17.5H9.5Z" fill="#414141"/>
    <path fill-rule="evenodd" clip-rule="evenodd" d="M14.169 2.575C13.5513 2.08722 12.7871 1.8219 12 1.8219C11.2129 1.8219 10.4487 2.08722 9.831 2.575L3.331 7.707C2.91608 8.03463 2.58078 8.45199 2.35026 8.92776C2.11973 9.40352 1.99998 9.92533 2 10.454V18.5C2 19.4283 2.36875 20.3185 3.02513 20.9749C3.6815 21.6313 4.57174 22 5.5 22H18.5C19.4283 22 20.3185 21.6313 20.9749 20.9749C21.6313 20.3185 22 19.4283 22 18.5V10.454C22 9.92533 21.8803 9.40352 21.6497 8.92776C21.4192 8.45199 21.0839 8.03463 20.669 7.707L14.169 2.575ZM10.451 3.36C10.8922 3.01173 11.4379 2.8223 12 2.8223C12.5621 2.8223 13.1078 3.01173 13.549 3.36L20.049 8.492C20.3454 8.72598 20.5849 9.02406 20.7497 9.36387C20.9144 9.70368 21 10.0764 21 10.454V18.5C21 19.163 20.7366 19.7989 20.2678 20.2678C19.7989 20.7366 19.163 21 18.5 21H5.5C4.83696 21 4.20107 20.7366 3.73223 20.2678C3.26339 19.7989 3 19.163 3 18.5V10.454C2.99993 10.0765 3.08536 9.70381 3.24989 9.36401C3.41442 9.0242 3.65378 8.72608 3.95 8.492L10.451 3.36Z" fill="#414141"/>
</svg>
