<svg width="24" height="24" viewBox="0 0 24 24" fill="none" xmlns="http://www.w3.org/2000/svg">
    <g clip-path="url(#clip0_595_6888)">
        <path d="M22.3436 2.64893H1.6543V21.1865H22.3436V2.64893ZM2.48187 3.97304H3.30944V5.29716H2.48187V3.97304ZM3.30944 19.8624H2.48187V18.5383H3.30944V19.8624ZM4.96458 15.228C5.64888 15.228 6.20594 14.3367 6.20594 13.2418H7.03351C7.03351 15.0671 6.10534 16.5521 4.96458 16.5521C3.82383 16.5521 2.89565 15.0671 2.89565 13.2418V10.5936C2.89565 8.76841 3.82383 7.28333 4.96458 7.28333C6.10534 7.28333 7.03351 8.76841 7.03351 10.5936H6.20594C6.20594 9.49874 5.64888 8.60744 4.96458 8.60744C4.28029 8.60744 3.72323 9.49874 3.72323 10.5936V13.2418C3.72323 14.3367 4.28029 15.228 4.96458 15.228ZM7.86109 11.2557H10.3438V12.5798H7.86109V11.2557ZM13.6541 10.5936C13.6541 11.1041 13.5296 11.5654 13.3314 11.9177C13.5301 12.2701 13.6541 12.7314 13.6541 13.2418V14.566C13.6541 15.6608 13.097 16.5521 12.4127 16.5521H10.3438V15.228H12.4127C12.641 15.228 12.8265 14.9306 12.8265 14.566V13.2418C12.8265 12.8772 12.641 12.5798 12.4127 12.5798H11.1714V11.2557H12.4127C12.641 11.2557 12.8265 10.9582 12.8265 10.5936V9.2695C12.8265 8.90487 12.641 8.60744 12.4127 8.60744H10.3438V7.28333H12.4127C13.097 7.28333 13.6541 8.17462 13.6541 9.2695V10.5936ZM17.792 15.228V16.5521H14.4817V14.9538L16.5005 11.7237C16.7997 11.2449 16.9644 10.6081 16.9644 9.93147C16.9644 9.20123 16.5932 8.60736 16.1368 8.60736C15.6804 8.60736 15.3092 9.20123 15.3092 9.93147V10.5935H14.4817V9.93147C14.4817 8.47089 15.224 7.28325 16.1368 7.28325C17.0496 7.28325 17.792 8.47089 17.792 9.93147C17.792 10.9624 17.5412 11.9316 17.0856 12.6599L15.4806 15.2279L17.792 15.228ZM18.6195 15.228H19.4471V8.60744H18.6195V7.28333H20.2747V15.228H21.1022V16.5521H18.6195V15.228ZM21.516 19.8624H20.6885V18.5383H21.516V19.8624ZM21.516 5.29716H20.6885V3.97304H21.516V5.29716Z" fill="#B5B5B5"/>
        <path d="M23.9996 0.000488281H0V23.8346H24L23.9996 0.000488281ZM23.172 22.5104H0.827572V1.3246H23.172V22.5104Z" fill="#B5B5B5"/>
    </g>
    <defs>
        <clipPath id="clip0_595_6888">
            <rect width="24" height="24" fill="white"/>
        </clipPath>
    </defs>
</svg>
