<svg width="24" height="24" viewBox="0 0 24 24" fill="none" xmlns="http://www.w3.org/2000/svg">
    <path fill-rule="evenodd" clip-rule="evenodd" d="M7.30554 7.75828L7.6486 10.8458L6.95437 10.9013C5.98628 10.9785 5.19578 11.7063 5.03885 12.6647C4.67716 14.8736 4.67716 17.1266 5.03885 19.3355C5.19578 20.2939 5.98628 21.0217 6.95437 21.0989L8.4505 21.2184C10.8126 21.407 13.1861 21.407 15.5482 21.2184L17.0443 21.0989C18.0124 21.0217 18.8029 20.2939 18.9599 19.3355C19.3216 17.1266 19.3216 14.8736 18.9599 12.6647C18.8029 11.7063 18.0124 10.9785 17.0443 10.9013L16.35 10.8458L16.6931 7.75828C16.7335 7.3943 16.7335 7.02696 16.6931 6.66298L16.6703 6.45809C16.4288 4.2847 14.7202 2.56504 12.5484 2.30953C12.1836 2.26661 11.815 2.26661 11.4502 2.30953C9.2784 2.56504 7.56979 4.2847 7.32831 6.45809L7.30554 6.66298C7.2651 7.02696 7.2651 7.3943 7.30554 7.75828ZM12.3732 3.79926C12.1248 3.77004 11.8738 3.77004 11.6254 3.79926C10.1468 3.97322 8.98354 5.14402 8.81913 6.62373L8.79636 6.82863C8.76816 7.08252 8.76816 7.33875 8.79636 7.59263L9.14516 10.7318C11.046 10.6099 12.9526 10.6099 14.8534 10.7318L15.2022 7.59263C15.2305 7.33874 15.2305 7.08252 15.2022 6.82863L15.1795 6.62373C15.0151 5.14402 13.8518 3.97322 12.3732 3.79926ZM11.9993 14.5001C11.1709 14.5001 10.4993 15.1717 10.4993 16.0001C10.4993 16.8285 11.1709 17.5001 11.9993 17.5001C12.8278 17.5001 13.4993 16.8285 13.4993 16.0001C13.4993 15.1717 12.8278 14.5001 11.9993 14.5001Z" fill="#929292"/>
</svg>
