<svg width="24" height="24" viewBox="0 0 24 24" fill="none" xmlns="http://www.w3.org/2000/svg">
    <path fill-rule="evenodd" clip-rule="evenodd" d="M6.71133 3.97081C10.2299 3.65621 13.7694 3.65621 17.288 3.97081L18.8053 4.10648C20.3177 4.2417 21.5396 5.39708 21.7593 6.89951C22.2538 10.2818 22.2538 13.7181 21.7593 17.1004C21.5396 18.6029 20.3177 19.7582 18.8053 19.8935L17.288 20.0291C13.7694 20.3437 10.2299 20.3437 6.71133 20.0291L5.19398 19.8935C3.68162 19.7582 2.45966 18.6029 2.24001 17.1004C1.74552 13.7181 1.74552 10.2818 2.24001 6.89951C2.45966 5.39708 3.68162 4.2417 5.19398 4.10648L6.71133 3.97081ZM5.85521 6.83962C5.62278 6.71446 5.34167 6.72072 5.11504 6.85608C4.88841 6.99145 4.74963 7.23599 4.74963 7.49997V17C4.74963 17.4142 5.08542 17.75 5.49963 17.75C5.91385 17.75 6.24963 17.4142 6.24963 17V8.75563L11.6441 11.6603C11.866 11.7799 12.1332 11.7799 12.3552 11.6603L17.7496 8.75563V17C17.7496 17.4142 18.0854 17.75 18.4996 17.75C18.9138 17.75 19.2496 17.4142 19.2496 17V7.49997C19.2496 7.23599 19.1109 6.99145 18.8842 6.85608C18.6576 6.72072 18.3765 6.71446 18.1441 6.83962L11.9996 10.1482L5.85521 6.83962Z" fill="black"/>
</svg>
