<svg width="24" height="24" viewBox="0 0 24 24" fill="none" xmlns="http://www.w3.org/2000/svg">
    <g clip-path="url(#clip0_595_7683)">
        <path fill-rule="evenodd" clip-rule="evenodd" d="M21.7672 1.95348V23.1627C21.7672 23.315 21.7256 23.4644 21.6469 23.5948C21.5682 23.7252 21.4554 23.8317 21.3207 23.9027C21.1861 23.9739 21.0345 24.007 20.8824 23.9983C20.7304 23.9897 20.5835 23.9396 20.4578 23.8536L17.6728 21.9526L15.0394 23.8425C14.7235 24.0702 14.2926 24.049 14.0002 23.7922L11.9998 22.0431L9.99945 23.7922C9.70698 24.049 9.2761 24.0702 8.96022 23.8425L6.32691 21.9526L3.54183 23.8536C3.41611 23.9396 3.26929 23.9896 3.11722 23.9983C2.96515 24.007 2.8136 23.9739 2.67893 23.9027C2.54423 23.8317 2.43147 23.7252 2.35279 23.5948C2.27411 23.4644 2.23249 23.315 2.23242 23.1627V1.95348C2.23247 0.875158 3.10649 0 4.18594 0H19.8138C20.8932 0 21.7672 0.875158 21.7672 1.95348ZM20.0928 1.95348C20.0928 1.87947 20.0634 1.8085 20.0111 1.75617C19.9587 1.70384 19.8878 1.67443 19.8138 1.67441H4.18594C4.11194 1.67443 4.04097 1.70384 3.98864 1.75617C3.93631 1.8085 3.9069 1.87947 3.90688 1.95348V21.5776L5.86705 20.2392C6.00883 20.1422 6.17704 20.0912 6.34881 20.0932C6.52058 20.0952 6.68756 20.1501 6.82705 20.2503L9.39671 22.0955L11.4484 20.3005C11.6009 20.1667 11.7969 20.0929 11.9999 20.0929C12.2028 20.0929 12.3988 20.1667 12.5513 20.3005L14.603 22.0955L17.1727 20.2503C17.3121 20.1501 17.4791 20.0952 17.6509 20.0932C17.8227 20.0912 17.9909 20.1422 18.1327 20.2392L20.0928 21.5776V1.95348Z" fill="#414141"/>
        <path fill-rule="evenodd" clip-rule="evenodd" d="M7.53447 6.1395C7.07233 6.1395 6.69727 5.76443 6.69727 5.30229C6.69727 4.84016 7.07233 4.46509 7.53447 4.46509H16.4647C16.9268 4.46509 17.3019 4.84016 17.3019 5.30229C17.3019 5.76443 16.9268 6.1395 16.4647 6.1395H7.53447ZM7.53447 10.6046C7.07233 10.6046 6.69727 10.2295 6.69727 9.76738C6.69727 9.30525 7.07233 8.93018 7.53447 8.93018H16.4647C16.9268 8.93018 17.3019 9.30525 17.3019 9.76738C17.3019 10.2295 16.9268 10.6046 16.4647 10.6046H7.53447ZM7.53447 15.0697C7.07233 15.0697 6.69727 14.6946 6.69727 14.2325C6.69727 13.7703 7.07233 13.3953 7.53447 13.3953H11.9996C12.4617 13.3953 12.8368 13.7703 12.8368 14.2325C12.8368 14.6946 12.4617 15.0697 11.9996 15.0697H7.53447Z" fill="#414141"/>
    </g>
    <defs>
        <clipPath id="clip0_595_7683">
            <rect width="24" height="24" fill="white"/>
        </clipPath>
    </defs>
</svg>
