<svg width="25" height="24" viewBox="0 0 25 24" fill="none" xmlns="http://www.w3.org/2000/svg">
    <g clip-path="url(#clip0_1221_6801)">
        <path d="M16.2018 23.4496C16.1328 23.4496 16.065 23.4318 16.0049 23.3978C15.9448 23.3638 15.8946 23.3148 15.8591 23.2557L14.9008 21.6585C14.612 21.1801 14.6788 20.7698 14.7859 20.5105C15.1983 19.509 16.9335 19.0111 17.2606 18.9251C17.4006 18.8602 18.1737 18.4628 18.1737 17.6079C18.1737 17.5823 18.1762 17.5562 18.1815 17.5312C18.2082 17.394 18.8642 14.1788 20.9556 14.1788C21.5673 14.1788 22.3328 14.2406 22.8268 14.7217L23.8355 15.7304C23.8895 15.7844 23.927 15.8528 23.9434 15.9274C23.9598 16.0021 23.9544 16.0798 23.9279 16.1515C22.6591 19.5926 19.8165 22.3136 16.3243 23.4305C16.2847 23.443 16.2434 23.4494 16.2018 23.4496ZM18.9729 17.6527C18.9453 19.0827 17.6014 19.6507 17.5433 19.6743C17.5262 19.6818 17.5079 19.6874 17.4893 19.6922C16.841 19.8563 15.7344 20.3065 15.5251 20.8153C15.4876 20.9069 15.4603 21.0385 15.5859 21.2462L16.3791 22.5685C19.4208 21.4978 21.8989 19.1139 23.0855 16.1133L22.2636 15.2911C22.0428 15.0764 21.6379 14.9788 20.9544 14.9788C19.622 14.9784 19.0422 17.3459 18.973 17.6527H18.9729ZM20.6657 6.00125C19.5629 6.00125 18.6657 5.10424 18.6657 4.00143C18.6657 2.89865 19.5629 2.00146 20.6657 2.00146C21.7683 2.00146 22.6655 2.89865 22.6655 4.00143C22.6655 5.10424 21.7683 6.00125 20.6657 6.00125ZM20.6657 2.80144C20.004 2.80144 19.4657 3.33991 19.4657 4.00143C19.4657 4.66294 20.004 5.20127 20.6657 5.20127C21.3272 5.20127 21.8656 4.66299 21.8656 4.00143C21.8656 3.33987 21.3272 2.80144 20.6657 2.80144Z" fill="#414141"/>
        <path d="M20.6656 10.4011C20.6127 10.4012 20.5602 10.3907 20.5114 10.3704C20.4626 10.35 20.4182 10.3201 20.3811 10.2824C20.2297 10.1291 16.6657 6.50058 16.6657 4.24099C16.6657 1.90322 18.46 0.0012207 20.6656 0.0012207C22.8709 0.0012207 24.6653 1.90322 24.6653 4.24099C24.6653 6.50025 21.1016 10.1291 20.9499 10.2824C20.9128 10.3201 20.8685 10.3499 20.8197 10.3703C20.7709 10.3907 20.7185 10.4012 20.6656 10.4011ZM20.6656 0.801711C18.9013 0.801711 17.4656 2.34429 17.4656 4.24155C17.4656 5.7074 19.5635 8.24841 20.6656 9.42407C21.7675 8.24766 23.8654 5.70576 23.8654 4.24155C23.8654 2.34429 22.4299 0.801711 20.6656 0.801711ZM4.66628 19.6007C3.56369 19.6007 2.6665 18.7036 2.6665 17.6008C2.6665 16.498 3.56365 15.6008 4.66628 15.6008C5.76905 15.6008 6.66624 16.4979 6.66624 17.6008C6.66624 18.7036 5.7691 19.6007 4.66628 19.6007ZM4.66628 16.4007C4.00476 16.4007 3.46643 16.9393 3.46643 17.6008C3.46643 18.2623 4.00481 18.8008 4.66628 18.8008C5.32798 18.8008 5.86631 18.2623 5.86631 17.6008C5.86631 16.9392 5.32798 16.4008 4.66628 16.4008V16.4007Z" fill="#414141"/>
        <path d="M4.66624 24.0005C4.61334 24.0005 4.56096 23.9901 4.51214 23.9697C4.46333 23.9493 4.41906 23.9194 4.38191 23.8818C4.23023 23.7285 0.666504 20.0999 0.666504 17.8404C0.666504 15.5026 2.46083 13.6006 4.66624 13.6006C6.87183 13.6006 8.66616 15.5026 8.66616 17.8404C8.66616 20.0996 5.1022 23.7285 4.95076 23.8818C4.91358 23.9194 4.86928 23.9493 4.82043 23.9697C4.77158 23.9901 4.71917 24.0005 4.66624 24.0005ZM4.66624 14.4011C2.90195 14.4011 1.46643 15.9437 1.46643 17.8409C1.46643 19.3068 3.56436 21.8478 4.66624 23.0234C5.76831 21.847 7.86623 19.3051 7.86623 17.8409C7.86623 15.9437 6.43052 14.4011 4.66624 14.4011Z" fill="#414141"/>
        <path d="M10.0416 23.6817C9.75764 23.6817 9.3409 23.5658 8.66528 23.3153L8.59848 23.2906C8.01303 23.0795 7.44498 22.823 6.89954 22.5234C6.62554 22.3731 6.35769 22.2119 6.09661 22.0402C6.05029 22.0099 6.01078 21.9703 5.98061 21.9239C5.95045 21.8775 5.93028 21.8253 5.9214 21.7707C5.9124 21.716 5.91487 21.6601 5.92865 21.6065C5.94242 21.5528 5.9672 21.5026 6.00141 21.4591C7.22104 19.9048 7.86572 18.6536 7.86572 17.8404C7.86572 16.571 7.21827 15.409 6.17629 14.8077C6.12769 14.7797 6.08553 14.7417 6.05253 14.6963C6.01954 14.651 5.99645 14.5992 5.98477 14.5443C5.97306 14.4893 5.97309 14.4325 5.98486 14.3776C5.99663 14.3227 6.01987 14.2708 6.05306 14.2255C6.57471 13.511 6.83912 12.6996 6.83912 11.8132C6.83912 11.502 6.73417 11.2504 6.5187 11.0443C5.98988 10.5395 4.77832 10.2933 3.19088 10.3664C2.40047 10.4035 1.65862 10.1613 1.10617 9.68725C1.05089 9.6397 1.00963 9.57796 0.986846 9.5087C0.964064 9.43943 0.960625 9.36525 0.9769 9.29417C1.69133 6.19908 3.65633 3.46275 6.36913 1.78682C6.60785 1.63926 6.94711 1.68009 7.57788 1.93133C7.86772 2.04583 8.13418 2.21238 8.36412 2.42274C8.75504 2.77996 9.0509 3.27357 9.24406 3.89079C9.47219 4.61624 9.75802 6.1231 9.38285 7.16381C9.35172 7.25024 9.31052 7.33208 9.26862 7.41411L9.23126 7.487C8.97567 8.00935 9.00768 8.60205 9.31891 9.11395C9.65218 9.66292 10.2489 10.0132 10.8753 10.028C12.0129 10.0549 13.606 10.5632 14.7338 12.8307C14.8294 13.0231 14.9115 13.217 14.9773 13.4059C15.9454 16.1841 13.9091 17.9659 12.1119 19.5384C11.6705 19.9247 11.2532 20.2895 10.8908 20.6588C10.6557 20.8982 10.5181 21.1298 10.482 21.3459C10.4532 21.5211 10.4829 21.7238 10.5144 21.9382L10.5281 22.031C10.5815 22.4095 10.6117 22.7909 10.6184 23.173C10.6213 23.3358 10.5468 23.483 10.4153 23.5766C10.3172 23.6454 10.2 23.6817 10.0416 23.6817ZM6.90099 21.6015C7.02744 21.6776 7.15531 21.7514 7.28455 21.8227C7.79355 22.1022 8.32357 22.3415 8.86978 22.5386L8.94342 22.5653C9.37207 22.7243 9.63976 22.8046 9.80526 22.8438C9.79167 22.6095 9.76847 22.3745 9.73566 22.1429L9.72286 22.0537C9.68569 21.8002 9.64374 21.5127 9.69286 21.2146C9.75614 20.8327 9.9673 20.4566 10.3201 20.0976C10.7037 19.7066 11.1319 19.3324 11.5857 18.9356C13.2704 17.4614 15.013 15.9369 14.2223 13.6687C14.1675 13.511 14.0983 13.3487 14.0179 13.1859C13.0675 11.276 11.7739 10.8488 10.8564 10.8276C9.96013 10.806 9.1093 10.3085 8.63528 9.52924C8.17972 8.77928 8.13543 7.90651 8.51294 7.13489L8.5578 7.04663C8.58381 6.9961 8.61128 6.94576 8.6305 6.89209C8.88244 6.19303 8.7466 4.97345 8.4813 4.12989C8.33061 3.64911 8.10979 3.27357 7.82508 3.01324C7.66665 2.8684 7.48413 2.75488 7.28253 2.67449C6.95391 2.54358 6.79351 2.51152 6.73037 2.50402C4.30157 4.02555 2.52402 6.46053 1.81733 9.2233C2.18935 9.46844 2.65372 9.59078 3.15413 9.56678C4.44843 9.50763 6.17901 9.61328 7.07109 10.4652C7.4479 10.8252 7.63905 11.2784 7.63905 11.8128C7.63905 12.7159 7.39625 13.5839 6.93268 14.3467C8.01093 15.1329 8.66565 16.4349 8.66565 17.84C8.66621 18.7793 8.07262 20.0432 6.90099 21.6015V21.6015Z" fill="#414141"/>
        <path d="M12.6661 24.0005C10.3243 24.0005 8.0528 23.323 6.09713 22.041C6.05081 22.0107 6.01131 21.9711 5.98117 21.9247C5.95104 21.8783 5.93092 21.8261 5.92211 21.7715C5.91309 21.7168 5.91552 21.6609 5.92927 21.6072C5.94301 21.5536 5.96775 21.5034 6.00193 21.4598C7.22193 19.9055 7.86676 18.6541 7.86676 17.8409C7.86676 15.9443 6.4311 14.4011 4.667 14.4011C3.60248 14.4011 2.61065 14.9687 2.01392 15.9189C1.97349 15.9828 1.91587 16.034 1.84767 16.0666C1.77947 16.0993 1.70345 16.112 1.62834 16.1033C1.55316 16.0944 1.48204 16.0644 1.42326 16.0167C1.36447 15.969 1.32041 15.9056 1.2962 15.8338C0.879505 14.595 0.667969 13.3058 0.667969 12.0011C0.667969 5.38475 6.05082 0.00170898 12.6674 0.00170898C14.6009 0.00170898 16.4503 0.450702 18.1647 1.33617C18.2179 1.36373 18.2642 1.40288 18.3003 1.45073C18.3363 1.49857 18.3612 1.5539 18.373 1.61263C18.3847 1.67129 18.3832 1.73183 18.3684 1.78981C18.3537 1.84779 18.3262 1.90173 18.2879 1.94767C17.7586 2.58177 17.4671 3.39599 17.4671 4.24115C17.4671 5.70629 19.563 8.24581 20.6652 9.42222C21.125 8.92818 22.0567 7.88254 22.7979 6.76862C22.8776 6.64867 23.0147 6.58717 23.1588 6.59097C23.2293 6.59599 23.2972 6.61956 23.3556 6.65928C23.414 6.69899 23.4609 6.75345 23.4915 6.81713C24.2714 8.44211 24.6667 10.1865 24.6667 12.0008C24.6655 18.6176 19.2826 24.0005 12.6661 24.0005ZM6.90114 21.6019C8.64105 22.6491 10.6249 23.2005 12.6661 23.2005C18.8414 23.2005 23.8656 18.1764 23.8656 12.0011C23.8656 10.5429 23.592 9.13287 23.0511 7.80141C22.0716 9.14332 21.0012 10.2305 20.9501 10.2825C20.8001 10.4349 20.5317 10.4349 20.3812 10.2825C20.2298 10.1292 16.6658 6.50069 16.6658 4.2411C16.6658 3.38038 16.9147 2.54399 17.3739 1.83926C15.8942 1.15009 14.3132 0.801262 12.6661 0.801262C6.49081 0.801262 1.46663 5.82544 1.46663 12.0007C1.46663 12.9634 1.59023 13.9175 1.8343 14.8462C2.57751 14.055 3.59095 13.6006 4.66644 13.6006C6.87203 13.6006 8.66636 15.5026 8.66636 17.8404C8.66636 18.7793 8.07276 20.0432 6.90114 21.6019Z" fill="#414141"/>
        <path d="M9.46591 16.4008C9.39237 16.4006 9.32025 16.3804 9.25733 16.3423C9.16682 16.287 9.10198 16.198 9.07709 16.0949C9.0522 15.9918 9.06928 15.883 9.12458 15.7925C9.13466 15.776 9.37709 15.3809 9.81891 14.7748C9.94945 14.5969 10.1994 14.557 10.3777 14.6873C10.4201 14.7182 10.4561 14.7572 10.4834 14.8019C10.5108 14.8467 10.5291 14.8964 10.5372 14.9483C10.5454 15.0001 10.5432 15.0531 10.5309 15.1041C10.5185 15.1551 10.4963 15.2032 10.4654 15.2456C10.0446 15.8223 9.80939 16.2052 9.807 16.2092C9.77143 16.2678 9.72135 16.3162 9.6616 16.3498C9.60184 16.3833 9.53444 16.4009 9.46591 16.4008ZM11.4409 13.7894C11.3641 13.7893 11.2888 13.7671 11.2243 13.7253C11.1597 13.6836 11.1085 13.6242 11.0768 13.5541C11.0452 13.4841 11.0343 13.4064 11.0456 13.3304C11.0569 13.2543 11.0898 13.1832 11.1405 13.1253C11.6213 12.5782 12.1181 12.0667 12.6168 11.6047C12.7785 11.4551 13.0321 11.4634 13.182 11.6271C13.2177 11.6656 13.2455 11.7108 13.2637 11.7601C13.2819 11.8094 13.2902 11.8617 13.2882 11.9142C13.2861 11.9667 13.2737 12.0183 13.2518 12.066C13.2298 12.1137 13.1986 12.1566 13.16 12.1923C12.6812 12.6346 12.2041 13.1266 11.7412 13.6534C11.7037 13.6961 11.6575 13.7304 11.6058 13.7538C11.554 13.7773 11.4978 13.7894 11.4409 13.7894ZM14.4996 10.9858C14.3739 10.9858 14.25 10.9271 14.1724 10.8163C14.0451 10.6354 14.0883 10.3858 14.2692 10.2588C14.8868 9.82354 15.5119 9.45995 16.1271 9.17796C16.3278 9.08642 16.5654 9.17356 16.6573 9.37483C16.7494 9.57544 16.6614 9.81309 16.4607 9.90524C15.8898 10.1667 15.3075 10.506 14.7299 10.9126C14.6625 10.9602 14.582 10.9857 14.4996 10.9858ZM18.271 9.30869C18.0806 9.30869 17.9121 9.17285 17.8777 8.97913C17.839 8.76197 17.9837 8.55432 18.2014 8.51514C18.6229 8.44009 19.0486 8.40161 19.4657 8.40161C19.6865 8.40161 19.8658 8.58034 19.8658 8.80153C19.8658 9.02272 19.6865 9.20159 19.4657 9.20159C19.0953 9.20159 18.7174 9.23562 18.3422 9.30283C18.3187 9.30668 18.2948 9.30864 18.271 9.30869Z" fill="#414141"/>
    </g>
    <defs>
        <clipPath id="clip0_1221_6801">
            <rect width="24" height="24" fill="white" transform="translate(0.666504)"/>
        </clipPath>
    </defs>
</svg>
