<svg width="48" height="48" viewBox="0 0 48 48" fill="none" xmlns="http://www.w3.org/2000/svg">
    <rect width="48" height="48" rx="24" fill="#00AFF5"/>
    <path d="M18.5025 18.9752C18.7849 16.1508 21.1616 14 24 14C26.8384 14 29.2151 16.1508 29.4975 18.9752L29.7841 21.8413C29.8016 22.0156 29.8103 22.1028 29.8207 22.1885C29.9649 23.3717 30.3717 24.5077 31.0113 25.5135C31.0576 25.5865 31.1062 25.6593 31.2034 25.8051L32.0645 27.0968C32.8508 28.2763 33.244 28.866 33.0715 29.3412C33.0388 29.4311 32.9935 29.5158 32.9368 29.5928C32.6371 30 31.9283 30 30.5108 30H17.4892C16.0717 30 15.3629 30 15.0632 29.5928C15.0065 29.5158 14.9612 29.4311 14.9285 29.3412C14.756 28.866 15.1492 28.2763 15.9355 27.0968L16.7966 25.8051C16.8938 25.6593 16.9424 25.5865 16.9887 25.5135C17.6283 24.5077 18.0351 23.3717 18.1793 22.1885C18.1897 22.1028 18.1984 22.0156 18.2159 21.8413L18.5025 18.9752Z" fill="#F9F9F9"/>
    <path d="M22.0681 32.6294C22.1821 32.7357 22.4332 32.8297 22.7825 32.8967C23.1318 32.9637 23.5597 33 24 33C24.4403 33 24.8682 32.9637 25.2175 32.8967C25.5668 32.8297 25.8179 32.7357 25.9319 32.6294" stroke="#F9F9F9" stroke-width="2" stroke-linecap="round"/>
</svg>
