<svg width="57" height="56" viewBox="0 0 57 56" fill="none" xmlns="http://www.w3.org/2000/svg">
    <path d="M28.5 0.349609H54.5C55.4113 0.349609 56.1504 1.08873 56.1504 2V28C56.1504 43.2707 43.7707 55.6504 28.5 55.6504C13.2293 55.6504 0.849609 43.2707 0.849609 28C0.849609 12.7293 13.2293 0.349609 28.5 0.349609Z" stroke="#00AFF5" stroke-width="0.7"/>
    <path d="M16.5 25.3332C16.5 20.3052 16.5 17.7905 18.0627 16.2292C19.624 14.6665 22.1387 14.6665 27.1667 14.6665H29.8333C34.8613 14.6665 37.376 14.6665 38.9373 16.2292C40.5 17.7905 40.5 20.3052 40.5 25.3332V30.6665C40.5 35.6945 40.5 38.2092 38.9373 39.7705C37.376 41.3332 34.8613 41.3332 29.8333 41.3332H27.1667C22.1387 41.3332 19.624 41.3332 18.0627 39.7705C16.5 38.2092 16.5 35.6945 16.5 30.6665V25.3332Z" fill="#00AFF5"/>
    <path d="M38.8877 32.3955C41.4556 32.3957 43.5449 34.4858 43.5449 37.0537C43.5447 39.6215 41.4555 41.7107 38.8877 41.7109C36.3198 41.7109 34.2297 39.6216 34.2295 37.0537C34.2295 34.4857 36.3196 32.3955 38.8877 32.3955Z" fill="#00AFF5" stroke="white" stroke-width="0.791667"/>
    <path d="M37.5532 39.4399C37.2199 39.4399 36.8866 39.2666 36.6999 38.9599C36.4199 38.4933 36.5666 37.8666 37.0466 37.5866L38.2332 36.8799V35.4399C38.2332 34.8933 38.6866 34.4399 39.2332 34.4399C39.7799 34.4399 40.2199 34.8799 40.2199 35.4399V37.4399C40.2199 37.7866 40.0332 38.1199 39.7399 38.2933L38.0732 39.2933C37.9132 39.3866 37.7266 39.4399 37.5532 39.4399Z" fill="white"/>
    <path fill-rule="evenodd" clip-rule="evenodd" d="M22.166 24C22.166 23.7348 22.2714 23.4804 22.4589 23.2929C22.6464 23.1054 22.9008 23 23.166 23H31.8327C32.0979 23 32.3523 23.1054 32.5398 23.2929C32.7273 23.4804 32.8327 23.7348 32.8327 24C32.8327 24.2652 32.7273 24.5196 32.5398 24.7071C32.3523 24.8946 32.0979 25 31.8327 25H23.166C22.9008 25 22.6464 24.8946 22.4589 24.7071C22.2714 24.5196 22.166 24.2652 22.166 24ZM22.166 29.3333C22.166 29.0681 22.2714 28.8138 22.4589 28.6262C22.6464 28.4387 22.9008 28.3333 23.166 28.3333H27.166C27.4312 28.3333 27.6856 28.4387 27.8731 28.6262C28.0607 28.8138 28.166 29.0681 28.166 29.3333C28.166 29.5985 28.0607 29.8529 27.8731 30.0404C27.6856 30.228 27.4312 30.3333 27.166 30.3333H23.166C22.9008 30.3333 22.6464 30.228 22.4589 30.0404C22.2714 29.8529 22.166 29.5985 22.166 29.3333ZM22.166 34.6667C22.166 34.4014 22.2714 34.1471 22.4589 33.9596C22.6464 33.772 22.9008 33.6667 23.166 33.6667H25.166C25.4312 33.6667 25.6856 33.772 25.8731 33.9596C26.0607 34.1471 26.166 34.4014 26.166 34.6667C26.166 34.9319 26.0607 35.1862 25.8731 35.3738C25.6856 35.5613 25.4312 35.6667 25.166 35.6667H23.166C22.9008 35.6667 22.6464 35.5613 22.4589 35.3738C22.2714 35.1862 22.166 34.9319 22.166 34.6667Z" fill="white"/>
</svg>
