<svg width="24" height="25" viewBox="0 0 24 25" fill="none" xmlns="http://www.w3.org/2000/svg">
    <path d="M16.13 3.68554C13.4001 3.22787 10.5983 3.22787 7.86833 3.68554C6.87098 3.85274 6.07672 4.61841 5.87675 5.61118C4.96063 10.1593 4.91064 14.8393 5.72941 19.406L6.06276 21.2652C6.16555 21.8385 6.86445 22.0676 7.28672 21.6665L11.3104 17.844C11.6964 17.4773 12.302 17.4773 12.6879 17.844L16.7116 21.6665C17.1339 22.0676 17.8328 21.8385 17.9356 21.2652L18.2689 19.406C19.0877 14.8394 19.0377 10.1593 18.1216 5.61118C17.9216 4.61841 17.1274 3.85274 16.13 3.68554Z" fill="#929292"/>
</svg>
