<svg width="22" height="22" viewBox="0 0 22 22" fill="none" xmlns="http://www.w3.org/2000/svg">
<path fill-rule="evenodd" clip-rule="evenodd" d="M10.9999 11.0024C8.57387 11.0024 6.60089 9.0294 6.60089 6.60333C6.60089 4.17725 8.57387 2.20428 10.9999 2.20428C13.426 2.20428 15.399 4.17725 15.399 6.60333C15.399 9.0294 13.426 11.0024 10.9999 11.0024ZM15.1328 11.7425C15.9029 11.1255 16.5243 10.3434 16.9511 9.45382C17.3779 8.56423 17.5991 7.59 17.5985 6.60333C17.5993 5.48767 17.3172 4.39009 16.7786 3.41305C16.24 2.43602 15.4625 1.61139 14.5187 1.01645C13.5749 0.421513 12.4957 0.0756433 11.3819 0.0110639C10.2681 -0.0535154 9.15614 0.165396 8.14992 0.647267C7.14369 1.12914 6.27608 1.85827 5.62816 2.76651C4.98025 3.67475 4.57318 4.73239 4.44503 5.84066C4.31689 6.94894 4.47184 8.07158 4.8954 9.1037C5.31897 10.1358 5.99732 11.0437 6.86704 11.7425C2.84301 13.2547 0.00231934 16.9906 0.00231934 22H2.20184C9.99988 22 5.64883 22 10.4999 22C15.3509 22 13.9999 22 19.798 22H21.9976C21.9976 16.9906 19.1569 13.2547 15.1328 11.7425Z" fill="white"/>
</svg>
