<svg width="24" height="24" viewBox="0 0 24 24" fill="none" xmlns="http://www.w3.org/2000/svg">
    <path d="M12.8643 2.99616C12.4789 2.33201 11.5198 2.33201 11.1344 2.99616L8.42034 7.67347C8.22997 8.00155 7.90092 8.22544 7.52585 8.28209L2.43954 9.05032C1.58526 9.17935 1.2856 10.258 1.9509 10.8092L5.74 13.9484C6.09074 14.239 6.25566 14.6973 6.17045 15.1448L5.17929 20.3499C5.0226 21.1727 5.88639 21.812 6.62754 21.4218L11.4169 18.9C11.7815 18.708 12.2172 18.708 12.5817 18.9L17.3711 21.4218C18.1123 21.812 18.9761 21.1727 18.8194 20.3499L17.8282 15.1448C17.743 14.6973 17.9079 14.239 18.2587 13.9484L22.0477 10.8092C22.7131 10.258 22.4134 9.17935 21.5591 9.05032L16.4728 8.28209C16.0977 8.22544 15.7687 8.00155 15.5783 7.67347L12.8643 2.99616Z" fill="#8C8C8C"/>
</svg>
