<svg width="24" height="25" viewBox="0 0 24 25" fill="none" xmlns="http://www.w3.org/2000/svg">
    <path fill-rule="evenodd" clip-rule="evenodd" d="M14.3854 15.9458C11.7351 18.0685 7.85569 17.9014 5.3989 15.4446C2.76287 12.8086 2.76287 8.5347 5.3989 5.89866C8.03494 3.26262 12.3088 3.26262 14.9448 5.89866C17.4016 8.35544 17.5687 12.2349 15.446 14.8851L20.6017 20.0408C20.8946 20.3337 20.8946 20.8085 20.6017 21.1014C20.3088 21.3943 19.8339 21.3943 19.541 21.1014L14.3854 15.9458ZM6.45956 14.3839C4.40931 12.3337 4.40931 9.00957 6.45956 6.95932C8.50982 4.90907 11.8339 4.90907 13.8842 6.95932C15.9329 9.00807 15.9344 12.3288 13.8887 14.3794C13.8872 14.3809 13.8857 14.3824 13.8842 14.3839C13.8827 14.3854 13.8812 14.3869 13.8797 14.3884C11.8291 16.4342 8.50831 16.4327 6.45956 14.3839Z" fill="#606060"/>
</svg>
