<svg width="24" height="24" viewBox="0 0 24 24" fill="none" xmlns="http://www.w3.org/2000/svg">
    <path d="M8.74963 11.9999C8.74963 10.205 10.2047 8.74989 11.9996 8.74989C13.7946 8.74989 15.2496 10.205 15.2496 11.9999C15.2496 13.7948 13.7946 15.2499 11.9996 15.2499C10.2047 15.2499 8.74963 13.7948 8.74963 11.9999Z" fill="#929292"/>
    <path fill-rule="evenodd" clip-rule="evenodd" d="M11.4604 1.8384C11.7552 1.53336 12.2441 1.53336 12.5389 1.8384L15.1112 4.49989H18.7496C19.1639 4.49989 19.4996 4.83567 19.4996 5.24989V8.88828L22.1611 11.4606C22.4662 11.7554 22.4662 12.2444 22.1611 12.5392L19.4996 15.1115V18.7499C19.4996 19.1641 19.1639 19.4999 18.7496 19.4999H15.1112L12.5389 22.1614C12.2441 22.4664 11.7552 22.4664 11.4604 22.1614L8.88803 19.4999H5.24964C4.83543 19.4999 4.49964 19.1641 4.49964 18.7499V15.1115L1.83816 12.5392C1.53312 12.2444 1.53311 11.7554 1.83816 11.4606L4.49964 8.88828V5.24989C4.49964 4.83567 4.83543 4.49989 5.24964 4.49989H8.88803L11.4604 1.8384ZM11.9996 7.24989C9.37628 7.24989 7.24963 9.37653 7.24963 11.9999C7.24963 14.6232 9.37628 16.7499 11.9996 16.7499C14.623 16.7499 16.7496 14.6232 16.7496 11.9999C16.7496 9.37653 14.623 7.24989 11.9996 7.24989Z" fill="#929292"/>
</svg>
