<svg width="24" height="24" viewBox="0 0 24 24" fill="none" xmlns="http://www.w3.org/2000/svg">
    <g clip-path="url(#clip0_1221_4451)">
        <path fill-rule="evenodd" clip-rule="evenodd" d="M23.397 21.2441C23.3813 21.012 23.3163 20.7859 23.2062 20.5811C23.0961 20.3762 22.9435 20.1972 22.7586 20.0561L17.4354 15.9859C17.3225 15.8999 17.2478 15.7731 17.2272 15.6328C17.2066 15.4924 17.2417 15.3495 17.325 15.2347C18.4218 13.7155 19.0698 11.8507 19.0698 9.8347C19.07 4.73758 14.9327 0.599976 9.8353 0.599976C4.73794 0.599976 0.600098 4.73758 0.600098 9.83494C0.600098 14.9323 4.7377 19.0699 9.83506 19.0699C11.8511 19.0699 13.7159 18.4219 15.2351 17.3251C15.4751 17.1523 15.806 17.2003 15.986 17.4355L20.0564 22.7587C20.342 23.1331 20.7764 23.3659 21.2444 23.3971C21.7124 23.4259 22.1732 23.2531 22.5044 22.9219L22.922 22.5043C23.0858 22.3398 23.2128 22.1425 23.2948 21.9253C23.3767 21.7081 23.4116 21.476 23.3972 21.2443L23.397 21.2441ZM9.8353 16.9265C5.9209 16.9265 2.7433 13.7491 2.7433 9.83494C2.7433 5.92078 5.9209 2.74294 9.8353 2.74294C13.7497 2.74294 16.9271 5.92054 16.9271 9.83494C16.9271 13.7493 13.7495 16.9267 9.83506 16.9267L9.8353 16.9265Z" fill="#414141"/>
    </g>
    <defs>
        <clipPath id="clip0_1221_4451">
            <rect width="24" height="24" fill="white"/>
        </clipPath>
    </defs>
</svg>
