<svg width="18" height="18" viewBox="0 0 18 18" fill="none" xmlns="http://www.w3.org/2000/svg">
    <path d="M9.64868 2.24712C9.35965 1.74901 8.64032 1.74901 8.35128 2.24712L6.31574 5.7551C6.17296 6.00117 5.92618 6.16908 5.64488 6.21157L1.83014 6.78774C1.18943 6.88451 0.964687 7.69347 1.46367 8.10687L4.30548 10.4613C4.56854 10.6792 4.69223 11.023 4.62833 11.3586L3.88495 15.2624C3.76744 15.8796 4.41528 16.359 4.97114 16.0664L8.5632 14.175C8.8366 14.031 9.16337 14.031 9.43677 14.175L13.0288 16.0664C13.5847 16.359 14.2325 15.8796 14.115 15.2624L13.3716 11.3586C13.3077 11.023 13.4314 10.6792 13.6945 10.4613L16.5363 8.10687C17.0353 7.69347 16.8105 6.88451 16.1698 6.78774L12.3551 6.21157C12.0738 6.16908 11.827 6.00117 11.6842 5.7551L9.64868 2.24712Z" fill="#E8752E"/>
</svg>
