<svg width="100" height="96" viewBox="0 0 100 96" fill="none" xmlns="http://www.w3.org/2000/svg">
    <path d="M34.375 0.382812C33.5156 0.675781 31.8945 2.29688 31.1719 3.56641C30.8789 4.09375 30.2344 5.46094 29.7461 6.59375C29.2773 7.72656 28.6719 9.11328 28.3984 9.67969C28.1445 10.2461 27.9297 10.7539 27.9297 10.8125C27.9297 10.8516 27.5781 11.4766 27.1289 12.1602C25.4883 14.7773 24.1406 15.3242 18.0664 15.8711C12.0312 16.418 10.2148 17.082 9.16016 19.1523C8.30078 20.793 8.4375 22.668 9.84375 28.7031C11.25 34.8164 10.7617 36.0273 4.84375 41.0664C2.71484 42.8633 0.996094 44.7383 0.46875 45.793C0.195312 46.3398 0.0976562 46.9648 0.0976562 48.0977C0.0976562 49.5625 0.136719 49.7188 0.800781 50.7344C1.69922 52.0625 2.53906 52.9414 5.11719 55.1484C10.7422 59.9727 11.2305 61.2422 9.84375 67.2969C8.57422 72.8047 8.37891 74.3477 8.82812 76.0859C9.16016 77.4336 10.4688 78.6445 12.1484 79.2109C13.4375 79.6211 14.3164 79.7578 19.7266 80.3047C21.2305 80.4609 22.9492 80.7734 23.7305 81.0273C26.0547 81.7891 27.3047 83.4102 29.1992 88.1367C31.4258 93.7031 33.2812 95.8516 35.8594 95.8516C37.0703 95.8516 39.0039 95.0703 41.6016 93.5078C43.0469 92.6484 45.1562 91.4766 46.2891 90.9102C48.2812 89.9336 48.3789 89.8945 50 89.9141C51.5039 89.9141 51.7969 89.9727 53.2031 90.6367C54.043 91.0273 55.9961 92.1211 57.5586 93.0391C61.9531 95.6758 63.6523 96.2031 65.6055 95.5586C67.3633 94.9727 69.2188 92.3555 70.7617 88.2344C71.0156 87.5312 71.582 86.2617 72.0312 85.4023C74.1602 81.1836 75.1953 80.6758 82.9102 80.0312C85.8203 79.7773 87.5391 79.4258 88.7305 78.8398C91.6016 77.3945 91.9727 75.1484 90.4297 68.5078C89.4141 64.1523 89.2773 61.9453 89.9609 60.5C90.5469 59.25 91.7969 57.8242 93.9453 55.9883C96.7188 53.625 98.3984 51.9258 99.1992 50.7344C99.8633 49.6992 99.9023 49.582 99.9023 48C99.8828 46.5938 99.8242 46.2227 99.3945 45.5195C98.7305 44.3867 97.4805 43.1172 94.7852 40.7539C89.0039 35.6953 88.6914 34.7578 90.4297 27.4922C91.543 22.8438 91.6406 20.6953 90.8398 19.1328C89.8047 17.1211 87.8906 16.3984 82.1094 15.8906C78.3008 15.5391 77.8125 15.4609 76.4648 15.0508C75.1562 14.6406 74.1992 14.0156 73.4961 13.0977C72.793 12.2188 71.4258 9.54297 70.7617 7.76562C69.9414 5.57812 68.5156 2.88281 67.6367 1.90625C66.543 0.675781 65.1367 0.0703125 63.7695 0.207031C62.2852 0.363281 60.8789 0.96875 57.9883 2.70703C54.668 4.71875 52.5586 5.75391 51.1133 6.04688C49.043 6.47656 47.3047 5.87109 42.6172 3.03906C38.3594 0.480469 36.1914 -0.222656 34.375 0.382812ZM69.043 33.332C70.0391 33.7812 71.1328 34.8359 71.7188 35.9492C72.3633 37.1406 72.3633 39.7188 71.6992 40.9688C71.3867 41.5547 67.6758 45.4219 60.1758 52.9219C47.8125 65.3047 48.2031 64.9922 45.6055 64.9922C43.2227 64.9922 43.125 64.9141 35.332 57.0625C28.8672 50.5586 28.3398 49.9727 28.0273 48.9961C27.3438 46.8672 28.0469 44.25 29.6875 42.9023C31.3477 41.5156 33.8867 41.2031 35.7422 42.1406C36.3086 42.4141 38.2422 44.1719 41.1133 47.043L45.6055 51.5156L54.1992 42.9219C58.9258 38.1953 63.125 34.0938 63.5352 33.8008C65.0586 32.7461 67.2852 32.5508 69.043 33.332Z" fill="#00AFF5"/>
</svg>
