<svg width="24" height="25" viewBox="0 0 24 25" fill="none" xmlns="http://www.w3.org/2000/svg">
    <path d="M4.28547 8.84374C3.11311 9.15832 2.25 10.2284 2.25 11.5V14.5C2.25 16.0188 3.48122 17.25 5 17.25H7.5C7.91421 17.25 8.25 16.9142 8.25 16.5V9.5C8.25 9.08579 7.91421 8.75 7.5 8.75H5.81483C6.24399 6.28002 8.75862 4.25 12 4.25C15.2414 4.25 17.756 6.28002 18.1852 8.75H16.5C16.0858 8.75 15.75 9.08579 15.75 9.5V16.5C15.75 16.9142 16.0858 17.25 16.5 17.25H18.163C17.8244 18.6834 16.5368 19.75 15 19.75H13.8546C13.5579 19.017 12.8393 18.5 12 18.5C10.8954 18.5 10 19.3954 10 20.5C10 21.6046 10.8954 22.5 12 22.5C12.8393 22.5 13.5579 21.983 13.8546 21.25H15C17.3998 21.25 19.3839 19.4704 19.7047 17.1589C20.882 16.8477 21.75 15.7752 21.75 14.5V11.5C21.75 10.2284 20.8869 9.15832 19.7145 8.84375C19.3331 5.33959 15.9262 2.75 12 2.75C8.0738 2.75 4.66693 5.33959 4.28547 8.84374Z" fill="#B5B5B5"/>
</svg>
