<svg width="24" height="25" viewBox="0 0 24 25" fill="none" xmlns="http://www.w3.org/2000/svg">
    <path fill-rule="evenodd" clip-rule="evenodd" d="M9.72894 4.49268C10.8209 2.89501 13.1777 2.89502 14.2697 4.49268L14.7016 5.12463C17.4076 9.08385 19.7326 13.2905 21.6453 17.6881L21.7355 17.8956C22.4096 19.4453 21.3912 21.205 19.7117 21.3927C14.5861 21.9656 9.41255 21.9656 4.28692 21.3927C2.60738 21.205 1.58902 19.4453 2.26307 17.8956L2.35329 17.6881C4.26602 13.2905 6.59098 9.08384 9.29702 5.12463L9.72894 4.49268ZM12.9993 9.50005C12.9993 10.0523 12.5516 10.5 11.9993 10.5C11.447 10.5 10.9993 10.0523 10.9993 9.50005C10.9993 8.94776 11.447 8.50005 11.9993 8.50005C12.5516 8.50005 12.9993 8.94776 12.9993 9.50005ZM11.9993 12.25C12.4135 12.25 12.7493 12.5858 12.7493 13V18C12.7493 18.4143 12.4135 18.75 11.9993 18.75C11.5851 18.75 11.2493 18.4143 11.2493 18V13C11.2493 12.5858 11.5851 12.25 11.9993 12.25Z" fill="#929292"/>
</svg>
