<svg width="24" height="24" viewBox="0 0 24 24" fill="none" xmlns="http://www.w3.org/2000/svg">
    <g clip-path="url(#clip0_595_1643)">
        <path d="M6.3 16.5L7.2 14.775C7.575 14.025 8.325 13.5 9.225 13.5H12C13.35 11.7 15.525 10.5 18 10.5C18.9 10.5 19.725 10.65 20.55 10.95C20.25 10.5 19.875 10.05 19.5 9.75H20.25C20.7 9.75 21 9.45 21 9C21 8.55 20.7 8.25 20.25 8.25H18.15L17.25 6C16.65 4.65 15.3 3.75 13.8 3.75H7.2C5.7 3.75 4.35 4.65 3.75 6L2.775 8.25H0.75C0.3 8.25 0 8.55 0 9C0 9.45 0.3 9.75 0.75 9.75H1.5C0.6 10.425 0 11.55 0 12.75V15.75C0 16.425 0.3 17.025 0.75 17.4V18.75C0.75 20.025 1.725 21 3 21H4.5C5.775 21 6.75 20.025 6.75 18.75V18H10.5C10.5 17.475 10.575 16.95 10.65 16.5H6.3ZM5.25 14.25H3C2.55 14.25 2.25 13.95 2.25 13.5C2.25 13.05 2.55 12.75 3 12.75H5.25C5.7 12.75 6 13.05 6 13.5C6 13.95 5.7 14.25 5.25 14.25ZM4.125 9L5.175 6.6C5.55 5.775 6.3 5.25 7.2 5.25H13.725C14.625 5.25 15.45 5.775 15.825 6.6L16.875 9H4.125Z" fill="#B5B5B5"/>
        <path d="M23.775 16.4251C23.7 16.0501 23.25 15.8251 22.875 15.9001C22.35 16.0501 21.975 15.9001 21.9 15.7501C21.825 15.6001 21.9 15.2251 22.275 14.7751C22.575 14.4751 22.575 14.0251 22.275 13.7251C21.525 12.9751 20.625 12.4501 19.575 12.1501C19.2 12.0751 18.75 12.3001 18.675 12.6751C18.525 13.2001 18.225 13.4251 18 13.4251C17.775 13.4251 17.55 13.1251 17.325 12.6751C17.175 12.3001 16.8 12.0751 16.425 12.1501C15.375 12.4501 14.475 12.9751 13.725 13.7251C13.425 14.0251 13.425 14.4751 13.725 14.7751C14.1 15.1501 14.175 15.5251 14.1 15.7501C14.025 15.9001 13.65 16.0501 13.125 15.9001C12.75 15.8251 12.3 16.0501 12.225 16.4251C12.075 16.9501 12 17.4751 12 18.0001C12 18.5251 12.075 19.0501 12.225 19.5751C12.3 19.9501 12.75 20.1751 13.125 20.1001C13.65 19.9501 14.025 20.1001 14.1 20.2501C14.175 20.4001 14.1 20.7751 13.725 21.2251C13.425 21.5251 13.425 21.9751 13.725 22.2751C14.475 23.0251 15.375 23.5501 16.425 23.8501C16.8 23.9251 17.25 23.7001 17.325 23.3251C17.475 22.8001 17.775 22.5751 18 22.5751C18.225 22.5751 18.45 22.8751 18.675 23.3251C18.75 23.6251 19.05 23.8501 19.425 23.8501H19.65C20.7 23.5501 21.6 23.0251 22.35 22.2751C22.65 21.9751 22.65 21.5251 22.35 21.2251C21.975 20.8501 21.9 20.4751 21.975 20.2501C22.05 20.1001 22.425 19.9501 22.95 20.1001C23.325 20.1751 23.775 19.9501 23.85 19.5751C24 19.0501 24.075 18.5251 24.075 18.0001C24.075 17.4751 23.925 16.9501 23.775 16.4251ZM18 20.2501C16.725 20.2501 15.75 19.2751 15.75 18.0001C15.75 16.7251 16.725 15.7501 18 15.7501C19.275 15.7501 20.25 16.7251 20.25 18.0001C20.25 19.2751 19.275 20.2501 18 20.2501Z" fill="#B5B5B5"/>
    </g>
    <defs>
        <clipPath id="clip0_595_1643">
            <rect width="24" height="24" fill="white"/>
        </clipPath>
    </defs>
</svg>
